<?xml version="1.0" encoding="utf-8"?><!-- Uploaded to: SVG Repo, www.svgrepo.com, Generator: SVG Repo Mixer Tools -->
<svg width="800px" height="800px" viewBox="0 0 24 24" id="dashboard-alt" xmlns="http://www.w3.org/2000/svg" class="icon multi-color"><path id="tertiary-fill" d="M21,9H3V6H21Zm0,11V13H3v7a1,1,0,0,0,1,1H20A1,1,0,0,0,21,20Z" style="fill: #b7b7b7; stroke-width: 2;"></path><path id="primary-stroke" d="M20,21H4a1,1,0,0,1-1-1V4A1,1,0,0,1,4,3H20a1,1,0,0,1,1,1V20A1,1,0,0,1,20,21ZM3,9H21M15,9V21" style="fill: none; stroke: rgb(0, 0, 0); stroke-linecap: round; stroke-linejoin: round; stroke-width: 2;"></path></svg>